<svg width="65" height="65" viewBox="0 0 65 65" fill="none" xmlns="http://www.w3.org/2000/svg">
<g id="icone-cross-assessoria-imprensa.svg">
<path id="Vector" d="M10.9624 22.1572C9.75009 22.1572 8.74414 23.1632 8.74414 24.3755V59.8418C8.74414 62.189 10.6529 64.0203 12.9227 64.0203C15.1926 64.0203 17.1013 62.1116 17.1013 59.8418V22.183H10.9624V22.1572Z" fill="#F18B0E"/>
<path id="Vector_2" d="M10.6523 22.1826C11.7873 22.3116 12.6127 23.1886 12.6127 24.3235V48.4921C12.6127 49.5755 13.4896 50.4525 14.573 50.4525H17.2297V22.1826H10.6523Z" fill="#FAB538"/>
<path id="Vector_3" d="M16.0957 22.1826H17.6691V50.5298H16.0957V22.1826Z" fill="#FF9900"/>
<path id="Vector_4" d="M61.5185 8.87305H19.2943C18.0304 8.87305 17.0245 9.879 17.0245 11.1429V55.6369C17.0245 59.9445 16.6376 63.5556 12.459 64.0457L12.9749 64.0973H58.0364C61.1316 64.0973 63.6594 61.5695 63.6594 58.4742V11.0913C63.8141 9.879 62.7824 8.87305 61.5185 8.87305Z" fill="#FAB538"/>
<path id="Vector_5" d="M55.7152 25.8967H25.0207C24.0664 25.8967 23.3184 25.1487 23.3184 24.1943V16.5852C23.3184 15.6308 24.0664 14.8828 25.0207 14.8828H55.7152C56.6695 14.8828 57.4176 15.6308 57.4176 16.5852V24.1685C57.4176 25.1487 56.6438 25.8967 55.7152 25.8967Z" fill="#8533AD"/>
<path id="Vector_6" d="M55.327 51.9227H44.1068C43.0235 51.9227 42.1465 51.0457 42.1465 49.9624V38.7679C42.1465 37.6846 43.0235 36.8076 44.1068 36.8076H55.3012C56.3846 36.8076 57.2616 37.6846 57.2616 38.7679V49.9108C57.21 51.0199 56.4104 51.9227 55.327 51.9227Z" fill="#FADB4F"/>
<path id="Vector_7" d="M55.5073 32.8614H25.2513C24.168 32.8614 23.3426 31.9844 23.3426 30.9527C23.3426 29.8693 24.2196 29.0439 25.2513 29.0439H55.5073C56.5906 29.0439 57.416 29.9209 57.416 30.9527C57.416 32.036 56.5906 32.8614 55.5073 32.8614ZM56.6422 57.4943H24.1164C23.6779 57.4943 23.291 57.1074 23.291 56.6689C23.291 56.2305 23.6779 55.8435 24.1164 55.8435H56.5906C57.0291 55.8435 57.416 56.2305 57.416 56.6689C57.416 57.159 57.0291 57.4943 56.6422 57.4943Z" fill="#EB3D7D"/>
<path id="Vector_8" d="M37.6065 38.5619H24.1164C23.6779 38.5619 23.291 38.175 23.291 37.7365C23.291 37.298 23.6779 36.9111 24.1164 36.9111H37.6065C38.045 36.9111 38.4319 37.298 38.4319 37.7365C38.4319 38.175 38.045 38.5619 37.6065 38.5619ZM37.6065 41.9151H24.1164C23.6779 41.9151 23.291 41.5282 23.291 41.0897C23.291 40.6512 23.6779 40.2643 24.1164 40.2643H37.6065C38.045 40.2643 38.4319 40.6512 38.4319 41.0897C38.4319 41.5282 38.045 41.9151 37.6065 41.9151ZM37.6065 45.2683H24.1164C23.6779 45.2683 23.291 44.8814 23.291 44.4429C23.291 44.0044 23.6779 43.6175 24.1164 43.6175H37.6065C38.045 43.6175 38.4319 44.0044 38.4319 44.4429C38.4319 44.9588 38.045 45.2683 37.6065 45.2683ZM34.1243 48.6988H24.1164C23.6779 48.6988 23.291 48.3119 23.291 47.8734C23.291 47.4349 23.6779 47.048 24.1164 47.048H34.1243C34.5628 47.048 34.9497 47.4349 34.9497 47.8734C34.9497 48.3119 34.5628 48.6988 34.1243 48.6988Z" fill="#8533AD"/>
<path id="Vector_9" d="M61.5175 8.87305H60.1247C61.3885 8.87305 62.3945 9.879 62.3945 11.1429V58.3711C62.3945 61.4663 59.8667 63.9941 56.7715 63.9941H58.1643C61.2596 63.9941 63.7874 61.4663 63.7874 58.3711V11.0913C63.8132 9.879 62.7814 8.87305 61.5175 8.87305Z" fill="#EDA541"/>
<path id="Vector_10" d="M50.0137 41.3468L50.7617 42.8686C50.8133 42.9976 50.8907 43.0492 51.0197 43.0492L52.722 43.3071C53.0316 43.3587 53.109 43.694 52.9026 43.8746L51.6903 45.0869C51.6387 45.1384 51.5613 45.2674 51.5613 45.3964L51.8709 47.0988C51.9224 47.4083 51.6129 47.6146 51.355 47.4857L49.8332 46.6603C49.7042 46.6087 49.5752 46.6087 49.5236 46.6603L48.0018 47.4857C47.7439 47.6146 47.4343 47.4341 47.4859 47.0988L47.7955 45.3964C47.7955 45.2674 47.7955 45.1384 47.6665 45.0869L46.4542 43.8746C46.2736 43.694 46.4026 43.3071 46.6347 43.3071L48.3371 43.0492C48.4661 43.0492 48.5177 42.9976 48.5951 42.8686L49.3431 41.3468C49.4978 41.0888 49.8847 41.0888 50.0137 41.3468Z" fill="#8533AD"/>
</g>
</svg>
