<svg width="90" height="61" viewBox="0 0 90 61" fill="none" xmlns="http://www.w3.org/2000/svg">
<g id="Group 34">
<path id="Vector" d="M87.1655 61H16.1704C15.0384 61 14.1121 60.0741 14.1121 58.9422V2.05784C14.1121 0.926151 15.0384 0 16.1704 0H87.1655C88.2977 0 89.224 0.926151 89.224 2.05784V58.9593C89.224 60.0741 88.2977 61 87.1655 61Z" fill="#FFAD33"/>
<path id="Vector_2" d="M89.224 9.10448H14.1121V1.99001C14.1121 0.895619 15.0384 0 16.1704 0H87.1655C88.2977 0 89.224 0.895619 89.224 1.99001V9.10448Z" fill="#FA6324"/>
<path id="Vector_3" d="M83.9653 46.4331H19.8257C19.4469 46.4331 19.1194 46.1237 19.1194 45.7628C19.1194 45.4017 19.4469 45.0923 19.8257 45.0923H83.9653C84.3444 45.0923 84.6716 45.4017 84.6716 45.7628C84.6716 46.1237 84.3616 46.4331 83.9653 46.4331ZM83.9653 35.6369H19.8257C19.4469 35.6369 19.1194 35.3275 19.1194 34.9665C19.1194 34.6056 19.4469 34.296 19.8257 34.296H83.9653C84.3444 34.296 84.6716 34.6056 84.6716 34.9665C84.6716 35.3275 84.3616 35.6369 83.9653 35.6369ZM83.9653 25.0126H19.8257C19.4469 25.0126 19.1194 24.7032 19.1194 24.3424C19.1194 23.9813 19.4469 23.6719 19.8257 23.6719H83.9653C84.3444 23.6719 84.6716 23.9813 84.6716 24.3424C84.6716 24.7204 84.3616 25.0126 83.9653 25.0126Z" fill="#F18B0E"/>
<path id="Vector_4" d="M71.6741 56.4476C71.295 56.4476 70.9676 56.1378 70.9676 55.7763V13.4174C70.9676 13.0559 71.295 12.7461 71.6741 12.7461C72.0533 12.7461 72.3806 13.0559 72.3806 13.4174V55.7935C72.3806 56.1551 72.0533 56.4476 71.6741 56.4476ZM58.577 56.4476C58.198 56.4476 57.8705 56.1378 57.8705 55.7763V13.4174C57.8705 13.0559 58.198 12.7461 58.577 12.7461C58.9561 12.7461 59.2835 13.0559 59.2835 13.4174V55.7935C59.2835 56.1551 58.9561 56.4476 58.577 56.4476ZM45.5662 56.4476C45.187 56.4476 44.8594 56.1378 44.8594 55.7763V13.4174C44.8594 13.0559 45.187 12.7461 45.5662 12.7461C45.9451 12.7461 46.2727 13.0559 46.2727 13.4174V55.7935C46.2727 56.1551 45.9624 56.4476 45.5662 56.4476ZM32.5725 56.4476C32.1933 56.4476 31.8657 56.1378 31.8657 55.7763V13.4174C31.8657 13.0559 32.1933 12.7461 32.5725 12.7461C32.9514 12.7461 33.279 13.0559 33.279 13.4174V55.7935C33.279 56.1551 32.9514 56.4476 32.5725 56.4476Z" fill="#F18B0E"/>
<path id="Vector_5" d="M84.4197 56.9027H19.3711C18.9916 56.9027 18.6641 56.5942 18.6641 56.2343V13.8696C18.6641 13.5096 18.9916 13.2012 19.3711 13.2012H84.4197C84.7992 13.2012 85.1267 13.5096 85.1267 13.8696V56.2343C85.1267 56.5942 84.8165 56.9027 84.4197 56.9027ZM20.0781 55.5831H83.7127V14.538H20.0781V55.5831Z" fill="#F18B0E"/>
<path id="Vector_6" d="M18.4875 30.8003C18.6597 30.5932 18.8663 30.438 19.0903 30.3342C19.9345 29.9546 22.5356 28.7807 23.3968 28.4011C24.4475 27.9523 25.7569 26.6577 24.62 24.0858C23.483 21.5311 20.9334 22.515 20.9334 22.515C20.9334 22.515 16.7303 24.3618 15.8519 24.7244C14.9904 25.1042 14.6287 24.3618 14.6287 24.3618C14.6287 24.3618 14.2153 23.6197 14.9904 23.0154C16.3686 21.9626 17.9706 19.5288 17.4022 16.4044C16.8337 13.2801 13.4573 10.7946 9.56437 11.5022C5.65396 12.21 3.24226 16.0248 4.2758 19.6496C5.30947 23.2571 8.34119 24.1031 8.8236 24.2239C9.30579 24.3275 9.5471 24.6381 9.52983 25.3457C9.51257 25.691 9.2542 25.8981 9.01311 26.0018C8.77179 26.1054 8.5307 26.1398 8.27234 26.1225C7.68654 26.0881 5.99844 25.9672 3.39731 25.8291C0.124339 25.6566 0.0898902 28.1767 0.0898902 28.1767L0.00376939 29.2987C-0.0823735 31.0074 1.33016 31.7671 1.96755 32.0259C2.13981 32.0951 2.31207 32.1294 2.50156 32.1467C3.38008 32.1986 6.39473 32.3884 7.2732 32.4574C8.28961 32.5439 8.84087 32.9235 9.13355 33.9592C9.40918 34.9948 8.92699 35.8407 8.92699 35.8407C8.393 36.79 5.5851 41.7958 5.10269 42.5898C4.62029 43.3839 4.51712 43.8327 4.60324 44.6438C4.67209 45.4552 5.15428 45.8694 5.42991 46.163C5.72281 46.4563 6.44631 46.8532 7.01484 47.1295C7.58315 47.4056 8.41004 47.4056 9.09923 47.1812C9.80547 46.957 10.3567 46.3182 10.5462 45.9902C10.7357 45.6623 13.4402 40.7257 13.6295 40.3804C13.819 40.0352 13.957 39.6209 14.6459 39.4482C15.2145 39.3101 15.6278 39.6899 15.7657 39.8453L15.9034 39.9833C16.4202 40.4321 19.0558 42.6934 20.4512 43.8327C22.0016 45.0926 23.2762 45.2481 25.1195 43.2285C26.9628 41.2088 25.154 39.6899 25.154 39.6899C25.154 39.6899 19.9 35.34 19.0215 34.477C18.1428 33.5967 18.0396 33.0443 17.9533 32.3538C17.8844 31.6806 18.2119 31.1456 18.4875 30.8003Z" fill="#8533AD"/>
<path id="Vector_7" d="M65.8184 33.6701L67.4482 36.9038C67.5709 37.1444 67.7986 37.2993 68.0439 37.3338L71.6892 37.8497C72.355 37.9357 72.618 38.7442 72.1273 39.1914L69.4986 41.7026C69.3058 41.8919 69.2182 42.1498 69.2707 42.4079L69.884 45.9684C69.9892 46.6047 69.3058 47.1034 68.7275 46.7939L65.4677 45.1082C65.24 44.9878 64.9596 44.9878 64.7143 45.1082L61.4546 46.7939C60.8589 47.1034 60.1753 46.6047 60.2981 45.9684L60.9114 42.4079C60.9641 42.1498 60.8765 41.8919 60.6837 41.7026L58.0548 39.1914C57.5816 38.7442 57.8447 37.9357 58.4931 37.8497L62.1382 37.3338C62.401 37.2993 62.6287 37.1274 62.7339 36.9038L64.3639 33.6701C64.6616 33.0852 65.5204 33.0852 65.8184 33.6701Z" fill="#8533AD"/>
<path id="Vector_8" d="M38.9215 36.4183C42.5669 36.4183 45.5223 33.4631 45.5223 29.8175C45.5223 26.172 42.5669 23.2168 38.9215 23.2168C35.276 23.2168 32.3208 26.172 32.3208 29.8175C32.3208 33.4631 35.276 36.4183 38.9215 36.4183Z" fill="#FADB4F"/>
<path id="Vector_9" d="M39.3364 25.4922C39.7202 25.4922 40.1216 25.8402 40.0519 26.3099L39.8424 30.0329C39.8075 30.4853 39.5283 30.7461 39.1272 30.7461H38.7433C38.3595 30.7461 38.0628 30.4678 38.0281 30.0329L37.7837 26.3099C37.7837 25.8576 38.1328 25.4922 38.4992 25.4922H39.3364ZM37.8012 32.5903C37.8012 31.9464 38.2548 31.4594 38.9003 31.4594C39.5458 31.4594 39.9994 31.9638 39.9994 32.5903C39.9994 33.2165 39.5458 33.6862 38.9003 33.6862C38.2548 33.6862 37.8012 33.2165 37.8012 32.5903Z" fill="#8533AD"/>
</g>
</svg>
