<svg width="124" height="91" viewBox="0 0 124 91" fill="none" xmlns="http://www.w3.org/2000/svg">
<g id="Group 9">
<path id="Vector" d="M93.2787 63.5089H8.97172C7.04145 63.5089 5.4646 61.932 5.4646 60.0017V3.50712C5.4646 1.57685 7.04145 0 8.97172 0H93.2787C95.209 0 96.7858 1.57685 96.7858 3.50712V59.9746C96.7858 61.932 95.209 63.5089 93.2787 63.5089Z" fill="#461E5F"/>
<path id="Vector_2" opacity="0.15" d="M1.06029 90.9407H122.94C123.511 90.9407 124 90.4785 124 89.8804V88.7657C124 88.1948 123.538 87.7054 122.94 87.7054H1.06029C0.489365 87.7054 0 88.1676 0 88.7657V89.8804C0 90.4785 0.489365 90.9407 1.06029 90.9407ZM40.1552 81.6699C39.4756 81.6699 38.9318 81.1261 38.9318 80.4465C38.9318 79.7668 39.4756 79.2231 40.1552 79.2231H71.3931C72.0728 79.2231 72.6165 79.7668 72.6165 80.4465C72.6165 81.1261 72.0728 81.6699 71.3931 81.6699" fill="#461E5F"/>
<path id="Vector_3" d="M43.5264 74.8459V45.8373C43.5264 45.0217 44.1789 44.3692 44.9945 44.3692H61.8504C62.666 44.3692 63.3185 45.0217 63.3185 45.8373V78.5161H43.5264V74.8459Z" fill="#321A4C"/>
<path id="Vector_4" d="M46.8433 45.8373C46.8433 45.0217 47.4957 44.3692 48.3114 44.3692H65.1673C65.9829 44.3692 66.6354 45.0217 66.6354 45.8373V78.5161H46.8433V45.8373Z" fill="#461E5F"/>
<path id="Vector_5" d="M47.7948 77.3199H68.5385C69.4901 77.3199 70.2513 78.0811 70.2513 79.0327C70.2513 79.9842 69.4901 80.7454 68.5385 80.7454H47.7948C46.8433 80.7454 46.082 79.9842 46.082 79.0327C46.082 78.0811 46.8433 77.3199 47.7948 77.3199Z" fill="#8533AD"/>
<path id="Vector_6" d="M70.2514 79.0327C70.2514 79.9843 69.4902 80.7455 68.5387 80.7455H43.7985C42.8469 80.7455 41.7051 79.9843 41.7051 79.0327H70.2514Z" fill="#660099"/>
<path id="Vector_7" d="M42.0856 77.3199H48.3658C49.3173 77.3199 50.0786 78.0811 50.0786 79.0327C50.0786 79.9842 49.3173 80.7454 48.3658 80.7454H42.0856C41.134 80.7454 40.3728 79.9842 40.3728 79.0327C40.3728 78.0811 41.134 77.3199 42.0856 77.3199Z" fill="#321A4C"/>
<path id="Vector_8" d="M99.1512 87.2432H3.64316C2.99067 87.2432 2.47412 86.7266 2.47412 86.0742V85.5304C2.47412 84.1711 3.5616 83.0836 4.92095 83.0836H97.8734C99.2327 83.0836 100.32 84.1711 100.32 85.5304V86.0742C100.32 86.7266 99.8037 87.2432 99.1512 87.2432Z" fill="#8533AD"/>
<path id="Vector_9" d="M21.3691 87.2432H3.64316C2.99067 87.2432 2.47412 86.7266 2.47412 86.0742V85.5304C2.47412 84.1711 3.5616 83.0836 4.92095 83.0836H20.0913C21.4507 83.0836 22.5381 84.1711 22.5381 85.5304V86.0742C22.511 86.7266 21.9944 87.2432 21.3691 87.2432Z" fill="#461E5F"/>
<path id="Vector_10" d="M2.66441 84.7148H100.103C100.891 84.7148 101.516 85.3401 101.516 86.1285V86.781C101.516 88.4122 100.184 89.7172 98.5802 89.7172H4.24125C2.61003 89.7172 1.30505 88.3851 1.30505 86.781V86.1285C1.25068 85.3401 1.87598 84.7148 2.66441 84.7148Z" fill="#660099"/>
<path id="Vector_11" d="M101.353 87.7053C100.973 88.8743 99.858 89.7171 98.5531 89.7171H4.21408C2.9091 89.7171 1.79444 88.8743 1.41382 87.7053H101.353Z" fill="#461E5F"/>
<path id="Vector_12" d="M22.6739 84.7148H2.63712C1.84869 84.7148 1.22339 85.3401 1.22339 86.1285V86.781C1.22339 88.4122 2.55556 89.7172 4.15959 89.7172H21.0699C22.7011 89.7172 24.0061 88.3851 24.0061 86.781V86.1285C24.0877 85.3401 23.4624 84.7148 22.6739 84.7148Z" fill="#321A4C"/>
<path id="Vector_13" d="M102.903 85.6119C102.903 83.7088 105.296 81.6698 108.123 81.3436C112.663 80.7998 118.209 81.0173 119.977 81.8329C120.792 82.2135 123.511 83.7088 123.538 85.6119C123.538 87.515 121.988 89.0647 120.085 89.0647H106.383C104.453 89.0647 102.903 87.515 102.903 85.6119Z" fill="#8533AD"/>
<path id="Vector_14" d="M123.511 85.6119C123.511 87.515 121.961 89.0647 120.058 89.0647H106.356C104.452 89.0647 102.903 87.515 102.903 85.6119C102.903 85.6119 103.827 86.645 113.18 86.645C122.532 86.645 123.511 85.6119 123.511 85.6119ZM97.6285 63.5089H13.3216C11.3913 63.5089 9.81445 61.932 9.81445 60.0017V3.50712C9.81445 1.57685 11.3913 0 13.3216 0H97.6285C99.5588 0 101.136 1.57685 101.136 3.50712V59.9746C101.136 61.932 99.5588 63.5089 97.6285 63.5089Z" fill="#660099"/>
<path id="Vector_15" d="M97.3839 63.101H13.5392C11.6361 63.101 10.0864 61.5514 10.0864 59.6483V3.86052C10.0864 1.95743 11.6361 0.407776 13.5392 0.407776H97.3839C99.287 0.407776 100.837 1.95743 100.837 3.86052V59.6755C100.837 61.5514 99.287 63.101 97.3839 63.101ZM13.5392 0.652457C11.772 0.652457 10.3583 2.09337 10.3583 3.83334V59.6483C10.3583 61.4154 11.7992 62.8292 13.5392 62.8292H97.3839C99.1511 62.8292 100.565 61.3883 100.565 59.6483V3.86052C100.565 2.09337 99.1239 0.679646 97.3839 0.679646L13.5392 0.652457Z" fill="#8533AD"/>
<path id="Vector_16" d="M95.4809 55.0265H15.4694C14.3548 55.0265 13.4304 54.1294 13.4304 52.9875V5.60055C13.4304 4.48588 14.3276 3.56152 15.4694 3.56152H95.4809C96.5955 3.56152 97.5199 4.4587 97.5199 5.60055V53.0147C97.5199 54.1294 96.5955 55.0265 95.4809 55.0265Z" fill="#00ABDB"/>
<path id="Vector_17" d="M55.4615 61.4155C56.4375 61.4155 57.2286 60.6243 57.2286 59.6484C57.2286 58.6724 56.4375 57.8812 55.4615 57.8812C54.4855 57.8812 53.6943 58.6724 53.6943 59.6484C53.6943 60.6243 54.4855 61.4155 55.4615 61.4155Z" fill="#321A4C"/>
<path id="Vector_18" d="M32.0695 30.0561C37.2947 30.0561 41.5306 25.8203 41.5306 20.5951C41.5306 15.3698 37.2947 11.134 32.0695 11.134C26.8443 11.134 22.6084 15.3698 22.6084 20.5951C22.6084 25.8203 26.8443 30.0561 32.0695 30.0561Z" fill="#791FA5"/>
<path id="Vector_19" d="M38.9591 40.3728H23.8431C23.1906 40.3728 22.6741 39.8562 22.6741 39.2038V35.6966C22.6741 35.0441 23.1906 34.5276 23.8431 34.5276H38.9591C39.6116 34.5276 40.1281 35.0441 40.1281 35.6966V39.2038C40.1281 39.8562 39.6116 40.3728 38.9591 40.3728ZM64.2974 45.783H49.1814C48.5289 45.783 48.0124 45.2665 48.0124 44.614V35.6966C48.0124 35.0441 48.5289 34.5276 49.1814 34.5276H64.2974C64.9499 34.5276 65.4664 35.0441 65.4664 35.6966V44.614C65.4393 45.2665 64.9227 45.783 64.2974 45.783ZM85.3402 45.783H70.2242C69.5717 45.783 69.0551 45.2665 69.0551 44.614V35.6966C69.0551 35.0441 69.5717 34.5276 70.2242 34.5276H85.3402C85.9926 34.5276 86.5092 35.0441 86.5092 35.6966V44.614C86.5092 45.2665 85.9926 45.783 85.3402 45.783ZM38.9591 45.783H23.8431C23.1906 45.783 22.6741 45.2665 22.6741 44.614V43.4721C22.6741 42.8196 23.1906 42.3031 23.8431 42.3031H38.9591C39.6116 42.3031 40.1281 42.8196 40.1281 43.4721V44.614C40.1281 45.2665 39.6116 45.783 38.9591 45.783Z" fill="#3385D6"/>
<g id="Group">
<path id="Vector_20" d="M69.7891 16.6657H47.686C47.4685 16.6657 47.3054 16.5026 47.3054 16.2851C47.3054 16.0676 47.4685 15.9045 47.686 15.9045H69.7891C70.0066 15.9045 70.1697 16.0676 70.1697 16.2851C70.1697 16.5026 70.0066 16.6657 69.7891 16.6657Z" fill="#791FA5"/>
</g>
<g id="Group_2">
<path id="Vector_21" d="M69.7891 21.3962H47.686C47.4685 21.3962 47.3054 21.2331 47.3054 21.0156C47.3054 20.7981 47.4685 20.635 47.686 20.635H69.7891C70.0066 20.635 70.1697 20.7981 70.1697 21.0156C70.1969 21.2331 70.0066 21.3962 69.7891 21.3962Z" fill="#791FA5"/>
</g>
<g id="Group_3">
<path id="Vector_22" d="M69.7891 26.1539H47.686C47.4685 26.1539 47.3054 25.9908 47.3054 25.7733C47.3054 25.5558 47.4685 25.3927 47.686 25.3927H69.7891C70.0066 25.3927 70.1697 25.5558 70.1697 25.7733C70.1969 25.9636 70.0066 26.1539 69.7891 26.1539Z" fill="#791FA5"/>
</g>
<path id="Vector_23" d="M93.4996 15.4746C93.4996 14.7507 92.7829 14.1567 91.9094 14.1567H74.3281V26.0922C74.3281 27.2802 75.4927 28.264 76.9485 28.264H93.4772L93.4996 15.4746Z" fill="#2E95CE"/>
<g id="Group_4">
<path id="Vector_24" d="M28.4186 21.5106C28.07 22.0028 27.5984 22.3992 27.0584 22.6658C26.9148 22.7342 26.7644 22.7957 26.6072 22.7957C26.2723 22.7888 26.1561 22.3035 25.9305 22.0643C25.7049 21.825 25.2606 21.5584 24.9735 21.6746C24.2558 21.9754 24.3241 22.8025 23.8115 22.8709C23.4082 22.9256 22.6562 22.5017 22.0137 22.8914C21.3096 23.322 21.3917 24.3474 22.0821 24.737C22.294 24.8532 22.6631 24.9489 22.8887 25.0309C23.1142 25.1129 23.3466 25.236 23.4492 25.4616C23.6132 25.8102 23.3876 26.2066 23.3261 26.5894C23.2714 26.9859 23.415 27.4029 23.7021 27.6763C23.9892 27.9497 24.413 28.0796 24.8094 28.0044C25.0008 27.9702 25.1922 27.8882 25.3768 27.936C25.7528 28.0249 25.8485 28.4965 26.0945 28.7973C26.3133 29.0639 26.6824 29.1938 27.0242 29.1186C27.4958 29.0161 27.8103 28.5717 27.9948 28.1206C28.029 28.0317 28.07 27.936 28.152 27.8813C28.3093 27.772 28.5143 27.8745 28.6921 27.9292C29.2321 28.1001 29.8814 27.772 30.066 27.232C30.1412 27.0132 30.1412 26.7671 30.1002 26.5416C30.0182 26.0904 29.7789 25.6666 29.4303 25.3727C29.1979 25.1745 28.9176 25.0309 28.6784 24.8327C28.4391 24.6344 28.2409 24.3542 28.2477 24.0466C28.2546 23.821 28.3708 23.6091 28.5075 23.4246C28.8219 23.0007 29.2389 22.6521 29.7174 22.4266" fill="#00ABDB"/>
<g id="Group_5">
<path id="Vector_25" d="M37.0519 18.6191C39.2735 16.1583 39.9707 13.0276 40.1826 11.5443C40.2442 11.0999 39.8682 10.7172 39.4171 10.7787C37.9406 10.9837 34.8304 11.6673 32.3422 13.9162C29.1774 16.7735 27.9675 19.6171 27.6189 20.6151C27.5437 20.8406 27.5984 21.0867 27.7624 21.2508L29.7037 23.1921C29.8678 23.3561 30.1207 23.4176 30.3394 23.3356C31.3511 22.9938 34.1947 21.7839 37.0519 18.6191Z" fill="#FF9900"/>
<g id="Group_6">
<path id="Vector_26" d="M33.8528 17.1153C33.0393 16.3019 33.0393 14.9758 33.8528 14.1623C34.6662 13.3489 35.9923 13.3489 36.8057 14.1623C37.6192 14.9758 37.6192 16.3019 36.8057 17.1153C35.9923 17.9287 34.6662 17.9287 33.8528 17.1153ZM36.3409 14.6271C35.7804 14.0666 34.8713 14.0666 34.3176 14.6271C33.7571 15.1877 33.7571 16.09 34.3176 16.6505C34.8781 17.211 35.7804 17.211 36.3409 16.6505C36.9014 16.09 36.9014 15.1877 36.3409 14.6271Z" fill="#CC1F59"/>
</g>
<path id="Vector_27" d="M35.5275 17.1563C36.4713 17.1563 37.2364 16.3912 37.2364 15.4474C37.2364 14.5036 36.4713 13.7385 35.5275 13.7385C34.5837 13.7385 33.8186 14.5036 33.8186 15.4474C33.8186 16.3912 34.5837 17.1563 35.5275 17.1563Z" fill="#F7B1CB"/>
<g id="Group_7">
<path id="Vector_28" d="M34.0923 16.8829C33.2993 16.0899 33.2993 14.8049 34.0923 14.0119C34.8852 13.219 36.1703 13.219 36.9632 14.0119C37.7561 14.8049 37.7561 16.0899 36.9632 16.8829C36.1703 17.669 34.8852 17.669 34.0923 16.8829ZM36.512 14.4631C35.972 13.9231 35.0834 13.9231 34.5434 14.4631C34.0034 15.0031 34.0034 15.8917 34.5434 16.4317C35.0834 16.9717 35.9652 16.9717 36.512 16.4317C37.0521 15.8849 37.0521 15.0031 36.512 14.4631Z" fill="#EB3D7D"/>
</g>
<path id="Vector_29" d="M29.5602 20.5741L27.2156 23.6022C27.1267 23.7184 27.2498 23.8483 27.3728 23.7595L30.401 21.4149C30.7428 21.1551 30.8111 20.6835 30.5514 20.4237C30.2916 20.1639 29.82 20.2323 29.5602 20.5741Z" fill="#FA6324"/>
<g id="Group_8">
<path id="Vector_30" d="M38.3781 12.6038C38.8976 13.1233 39.3214 13.6565 39.5948 14.1145C39.9298 13.0892 40.1075 12.18 40.1964 11.558C40.2647 11.1068 39.8751 10.7241 39.4239 10.7856C38.8019 10.8744 37.8928 11.0453 36.8606 11.3803C37.3186 11.6605 37.8518 12.0775 38.3781 12.6038Z" fill="#EB3D7D"/>
</g>
<g id="Group_9">
<path id="Vector_31" d="M32.4516 22.6452L32.4311 23.4928C32.4175 24.2311 32.1851 24.9556 31.7749 25.5708L31.2417 26.3569C31.1119 26.5415 30.8248 26.48 30.7838 26.2612L30.2916 23.3288C30.2643 23.1784 30.3463 23.028 30.4898 22.9665L31.9937 22.3376C32.2124 22.2419 32.4516 22.406 32.4516 22.6452Z" fill="#FA6324"/>
<path id="Vector_32" d="M28.3298 18.5234L27.4822 18.5439C26.744 18.5576 26.0194 18.79 25.4042 19.2001L24.6181 19.7333C24.4335 19.8632 24.495 20.1503 24.7138 20.1913L27.6462 20.6835C27.7966 20.7108 27.947 20.6288 28.0085 20.4852L28.6374 18.9814C28.7331 18.7627 28.569 18.5166 28.3298 18.5234Z" fill="#FA6324"/>
</g>
</g>
<path id="Vector_33" d="M23.2988 22.2488C23.5517 22.2488 23.7568 22.0437 23.7568 21.7908C23.7568 21.5379 23.5517 21.3328 23.2988 21.3328C23.0459 21.3328 22.8408 21.5379 22.8408 21.7908C22.8408 22.0437 23.0459 22.2488 23.2988 22.2488Z" fill="#00ABDB"/>
<path id="Vector_34" d="M28.5825 29.3988C28.8354 29.3988 29.0405 29.1938 29.0405 28.9408C29.0405 28.6879 28.8354 28.4828 28.5825 28.4828C28.3296 28.4828 28.1245 28.6879 28.1245 28.9408C28.1245 29.1938 28.3296 29.3988 28.5825 29.3988Z" fill="#00ABDB"/>
<path id="Vector_35" d="M22.0342 26.2271C22.1776 26.2271 22.2939 26.1108 22.2939 25.9674C22.2939 25.8239 22.1776 25.7076 22.0342 25.7076C21.8907 25.7076 21.7744 25.8239 21.7744 25.9674C21.7744 26.1108 21.8907 26.2271 22.0342 26.2271Z" fill="#00ABDB"/>
</g>
</g>
</svg>
