<svg width="55" height="55" viewBox="0 0 55 55" fill="none" xmlns="http://www.w3.org/2000/svg">
<path d="M50.9945 54.7762H4.29609C2.23359 54.7762 0.566406 53.109 0.566406 51.0465V22.4121C0.566406 21.7074 1.15078 21.123 1.85547 21.123H53.4867C54.157 21.123 54.707 21.673 54.707 22.3434V51.1152C54.6555 53.1777 53.0398 54.7762 50.9945 54.7762Z" fill="#FFAD33"/>
<path d="M48.1586 21.4676L48.2273 15.7441L53.8133 20.1785C54.3977 20.6254 54.707 21.3301 54.707 22.0348V23.1176L48.9148 26.3316L48.1586 21.4676ZM0.961719 23.1176L0.566406 22.8598V22.3441C0.566406 21.6395 0.892969 20.9348 1.46016 20.4879L7.04609 16.0535L7.11484 21.777L0.961719 23.1176Z" fill="#EA522F"/>
<path d="M51.8715 21.0371L4.29648 21.123C2.88711 21.123 1.6668 21.9652 1.01367 23.1168L26.4512 38.8605C27.0871 39.2387 28.0496 39.2387 28.7715 38.8605L54.2777 23.1855C54.3121 21.7934 53.2809 21.0371 51.8715 21.0371Z" fill="#EA522F"/>
<path d="M46.6293 45.667H8.66211C7.63086 45.667 6.85742 44.8248 6.85742 43.8623V9.05762C6.85742 8.02637 7.69961 7.25293 8.66211 7.25293H46.6121C47.6434 7.25293 48.4168 8.09512 48.4168 9.05762V43.8623C48.4168 44.8936 47.5918 45.667 46.6293 45.667Z" fill="#EB3D7D"/>
<path d="M27.225 37.9496L6.875 24.9215V46.1824C6.875 47.2137 7.71719 47.9871 8.67969 47.9871H9.10938L27.225 38.1043L45.3406 47.9871H46.6297C47.6609 47.9871 48.4344 47.1449 48.4344 46.1824V24.4746L27.225 37.9496Z" fill="#D83582"/>
<path d="M29.2184 39.2395L2.30273 24.5957V53.8832L29.2184 39.2395Z" fill="#FFAD33"/>
<path d="M4.03906 52.9201L4.93281 52.4732L26.5891 37.8295L20.0406 34.2373L4.03906 52.9201Z" fill="#F18B0E"/>
<path d="M25.2305 39.2395L52.1461 24.5957V53.8832L25.2305 39.2395Z" fill="#FFAD33"/>
<path d="M50.4102 52.9201L49.4477 52.4732L27.8086 37.8295L34.4258 34.2373L50.4102 52.9201Z" fill="#F18B0E"/>
<path d="M26.0047 33.3268L2.75 54.5189H52.5938L29.3391 33.3268C28.325 32.5018 26.8984 32.5018 26.0047 33.3268Z" fill="#FFAD33"/>
<path d="M25.7473 4.17617L12.9254 25.5746C12.1004 26.9324 13.0973 28.6684 14.6786 28.6684H40.3223C41.9207 28.6684 42.9004 26.9324 42.0754 25.5746L29.2536 4.17617C28.4629 2.85273 26.5379 2.85273 25.7473 4.17617Z" fill="#D83582"/>
<path d="M25.7473 2.6127L12.9254 24.0111C12.1004 25.3689 13.0973 27.1049 14.6786 27.1049H40.3223C41.9207 27.1049 42.9004 25.3689 42.0754 24.0111L29.2536 2.6127C28.4629 1.28926 26.5379 1.28926 25.7473 2.6127Z" fill="#FAB538"/>
<path d="M28.4902 20.416H26.373C26.373 19.9525 26.4069 19.5488 26.4746 19.2051C26.5475 18.8561 26.6673 18.5436 26.834 18.2676C27.0007 17.9863 27.2246 17.7181 27.5059 17.4629C27.7507 17.2493 27.9642 17.0488 28.1465 16.8613C28.3288 16.6686 28.4694 16.4707 28.5684 16.2676C28.6673 16.0645 28.7168 15.8431 28.7168 15.6035C28.7168 15.3171 28.6725 15.0827 28.584 14.9004C28.5007 14.7129 28.3757 14.5723 28.209 14.4785C28.0475 14.3796 27.8444 14.3301 27.5996 14.3301C27.3965 14.3301 27.2064 14.377 27.0293 14.4707C26.8522 14.5592 26.709 14.6999 26.5996 14.8926C26.4902 15.0853 26.4303 15.3379 26.4199 15.6504H23.9668C23.9824 14.9056 24.1517 14.2962 24.4746 13.8223C24.7975 13.3431 25.2298 12.9915 25.7715 12.7676C26.3184 12.5384 26.9277 12.4238 27.5996 12.4238C28.3444 12.4238 28.9824 12.541 29.5137 12.7754C30.0501 13.0098 30.459 13.3561 30.7402 13.8145C31.0267 14.2728 31.1699 14.8327 31.1699 15.4941C31.1699 15.9473 31.084 16.3457 30.9121 16.6895C30.7402 17.028 30.5111 17.3457 30.2246 17.6426C29.9382 17.9342 29.6204 18.2389 29.2715 18.5566C28.9746 18.8223 28.7715 19.0983 28.6621 19.3848C28.5527 19.666 28.4954 20.0098 28.4902 20.416ZM26.0918 22.8066C26.0918 22.4577 26.2168 22.1634 26.4668 21.9238C26.722 21.6842 27.0527 21.5645 27.459 21.5645C27.8652 21.5645 28.1934 21.6842 28.4434 21.9238C28.6934 22.1634 28.8184 22.4577 28.8184 22.8066C28.8184 23.1608 28.6934 23.4577 28.4434 23.6973C28.1934 23.9316 27.8652 24.0488 27.459 24.0488C27.0527 24.0488 26.722 23.9316 26.4668 23.6973C26.2168 23.4577 26.0918 23.1608 26.0918 22.8066Z" fill="#55057F"/>
</svg>
