<svg width="57" height="57" viewBox="0 0 57 57" fill="none" xmlns="http://www.w3.org/2000/svg">
<g id="vivo-notebook-velocidade-fibra-320x320.svg">
<g id="Group">
<g id="Group_2">
<path id="Vector" d="M55.9552 53.8471H0.122925L5.53398 44.9751C5.85021 44.4481 6.4124 44.1318 7.02729 44.1318H49.0684C49.6833 44.1318 50.2455 44.4481 50.5617 44.9751L55.9552 53.8471Z" fill="#660099"/>
<path id="Vector_2" d="M0.333745 53.4956L0.122925 53.847H55.9552L55.7268 53.4956H0.333745Z" fill="#8533AD"/>
<g id="Group_3">
<path id="Vector_3" d="M49.4549 44.1494H6.60563C6.2894 44.1494 6.02588 43.8859 6.02588 43.5697V16.655C6.02588 16.3387 6.2894 16.0752 6.60563 16.0752H49.4549C49.7711 16.0752 50.0346 16.3387 50.0346 16.655V43.5697C50.0346 43.8859 49.7711 44.1494 49.4549 44.1494Z" fill="#660099"/>
</g>
<path id="Vector_4" d="M48.0319 42.3927H8.04627C7.92329 42.3927 7.83545 42.3049 7.83545 42.1819V18.2889C7.83545 18.166 7.92329 18.0781 8.04627 18.0781H48.0319C48.1548 18.0781 48.2427 18.166 48.2427 18.2889V42.1995C48.2251 42.3049 48.1373 42.3927 48.0319 42.3927Z" fill="#C299D6"/>
<path id="Vector_5" d="M55.4633 55.5689H0.614839C0.333745 55.5689 0.122925 55.3405 0.122925 55.077V53.8647H55.9552V55.0945C55.9552 55.3405 55.7268 55.5689 55.4633 55.5689Z" fill="#461E5F"/>
<path id="Vector_6" d="M51.2118 49.1036L48.5941 44.7993H7.22058L4.58533 49.1036H51.2118Z" fill="#8533AD"/>
<path id="Vector_7" d="M32.7825 52.8635L31.6055 49.8066H24.2092L23.0321 52.8635H32.7825Z" fill="#8533AD"/>
</g>
<path id="Vector_8" d="M38.0706 40.3191L37.6841 38.3163C37.3854 36.7527 36.63 35.3121 35.5407 34.1702L34.2934 32.8525C34.1528 32.712 33.9947 32.6417 33.819 32.6417C34.6799 29.5672 35.4529 25.1927 35.1718 19.7817C34.961 15.6531 33.6258 11.9813 32.1676 9.11768C32.1676 9.11768 32.1676 9.11768 32.1852 9.11768C31.1311 7.06218 30.0243 5.41076 29.2161 4.33909C29.0756 4.14583 28.8823 3.98772 28.6891 3.89988C28.0918 3.60121 27.3187 3.74176 26.8795 4.32152C24.947 6.86893 21.2752 12.6138 20.9239 19.7817C20.6428 25.1927 21.4158 29.5497 22.2766 32.6417C22.1009 32.6417 21.9428 32.712 21.8023 32.8525L20.5549 34.1702C19.4657 35.3121 18.7102 36.7527 18.4116 38.3163L18.0251 40.3191C17.9372 40.7934 18.4643 41.1448 18.8684 40.8637L23.9983 37.2095C24.2267 37.596 24.6659 37.8419 25.1227 37.8419H27.266L27.8282 42.2516C27.8634 42.5678 28.2499 42.5678 28.3026 42.2516L28.8648 37.8419H31.0081C31.4649 37.8419 31.9041 37.596 32.1325 37.2095L37.2624 40.8637C37.6314 41.1448 38.1584 40.7934 38.0706 40.3191Z" fill="#B989D0"/>
<path id="Vector_9" d="M26.4579 35.1545C26.6687 36.4194 26.5633 37.7546 26.1592 38.9668C26.0538 39.283 25.9132 39.6168 25.6673 39.8452C25.1578 40.3371 24.2442 39.7749 23.5415 39.7574C22.8388 39.7398 21.7495 40.0033 21.5036 40.6182C20.8711 42.1642 22.2239 43.3237 21.5563 44.1846C21.0292 44.8698 19.2373 45.3793 18.8683 46.9428C18.4467 48.647 20.1332 50.0876 21.7671 49.6308C22.259 49.4902 22.9618 49.0862 23.4361 48.8578C23.9104 48.6294 24.4551 48.4713 24.9294 48.647C25.7024 48.9281 25.9659 49.8767 26.4579 50.5443C26.9673 51.2295 27.8282 51.6512 28.6715 51.6336C29.5323 51.616 30.358 51.1592 30.8499 50.4565C31.0783 50.1227 31.254 49.7011 31.6054 49.4902C32.3081 49.051 33.169 49.6308 33.9947 49.7011C34.7326 49.7713 35.488 49.4024 35.8921 48.7875C36.4543 47.9091 36.261 46.7672 35.8569 45.8009C35.7691 45.6076 35.6812 45.3968 35.7164 45.2036C35.7867 44.7995 36.2434 44.6414 36.6124 44.4657C37.7016 43.9035 38.176 42.4278 37.6313 41.3385C37.4029 40.8993 37.0516 40.5304 36.6299 40.2317C35.8218 39.6695 34.8204 39.3884 33.8366 39.4763C33.169 39.529 32.5365 39.7398 31.8689 39.7925C31.2013 39.8452 30.481 39.7398 30.0242 39.2655C29.6904 38.9141 29.5499 38.4222 29.4796 37.9303C29.3039 36.8059 29.4269 35.6464 29.7958 34.5747" fill="#00ABDB"/>
<g id="Group_4">
<path id="Vector_10" d="M35.1542 17.6913C34.8028 10.5937 31.1134 4.7961 29.1809 2.23112C28.6012 1.45812 27.4417 1.45812 26.8619 2.23112C24.9294 4.77854 21.2576 10.5234 20.9062 17.6913C20.4495 26.8093 22.9266 32.9582 23.8929 34.9961C24.1037 35.4529 24.578 35.734 25.0875 35.734H30.9729C31.4824 35.734 31.9392 35.4529 32.1675 34.9961C33.1514 32.9582 35.6285 26.8093 35.1542 17.6913Z" fill="#EB3D7D"/>
<g id="Group_5">
<path id="Vector_11" d="M28.039 20.2563C25.5794 20.2563 23.5591 18.2535 23.5591 15.7763C23.5591 13.2992 25.5619 11.2964 28.039 11.2964C30.4986 11.2964 32.5189 13.2992 32.5189 15.7763C32.5189 18.2535 30.4986 20.2563 28.039 20.2563ZM28.039 12.7194C26.3525 12.7194 24.9646 14.0898 24.9646 15.7939C24.9646 17.498 26.3349 18.8683 28.039 18.8683C29.7256 18.8683 31.1135 17.498 31.1135 15.7939C31.1135 14.0898 29.7256 12.7194 28.039 12.7194Z" fill="#FA6324"/>
</g>
<path id="Vector_12" d="M28.039 18.8685C30.0668 18.8685 31.7108 17.2246 31.7108 15.1967C31.7108 13.1688 30.0668 11.5249 28.039 11.5249C26.0111 11.5249 24.3672 13.1688 24.3672 15.1967C24.3672 17.2246 26.0111 18.8685 28.039 18.8685Z" fill="#00ABDB"/>
<g id="Group_6">
<path id="Vector_13" d="M28.0391 19.5362C25.6498 19.5362 23.6997 17.5861 23.6997 15.1968C23.6997 12.8075 25.6498 10.8574 28.0391 10.8574C30.4284 10.8574 32.3785 12.8075 32.3785 15.1968C32.3785 17.5861 30.4284 19.5362 28.0391 19.5362ZM28.0391 12.2102C26.3877 12.2102 25.0525 13.5454 25.0525 15.1968C25.0525 16.8482 26.3877 18.1834 28.0391 18.1834C29.6905 18.1834 31.0257 16.8482 31.0257 15.1968C31.0257 13.5454 29.673 12.2102 28.0391 12.2102Z" fill="#FADB4F"/>
</g>
<path id="Vector_14" d="M26.7566 32.0096L27.7931 40.1437C27.8283 40.46 28.2148 40.46 28.2675 40.1437L29.304 32.0096C29.427 31.096 28.8121 30.2879 28.0391 30.2879C27.2485 30.2703 26.6512 31.096 26.7566 32.0096Z" fill="#FADB4F"/>
<g id="Group_7">
<path id="Vector_15" d="M28.0391 6.57029C29.6202 6.57029 31.0608 6.74597 32.1676 7.02707C31.1135 4.97157 30.0067 3.32014 29.1986 2.24847C28.6188 1.47546 27.4417 1.4579 26.862 2.24847C26.0538 3.32014 24.9295 4.97157 23.8754 7.04463C24.9997 6.74597 26.4579 6.57029 28.0391 6.57029Z" fill="#FF9900"/>
</g>
<g id="Group_8">
<path id="Vector_16" d="M34.2758 30.7624L35.5232 32.08C36.6124 33.2219 37.3678 34.6625 37.6665 36.2261L38.053 38.2289C38.1409 38.7033 37.6138 39.0546 37.2097 38.7735L32.0271 35.0842C31.7635 34.8909 31.6581 34.5396 31.7811 34.2409L33.0987 31.0083C33.3096 30.5164 33.9245 30.3934 34.2758 30.7624Z" fill="#FADB4F"/>
<path id="Vector_17" d="M21.7847 30.7624L20.5373 32.08C19.4481 33.2219 18.6927 34.6625 18.394 36.2261L18.0075 38.2289C17.9197 38.7033 18.4467 39.0546 18.8508 38.7735L24.0334 35.0842C24.297 34.8909 24.4024 34.5396 24.2794 34.2409L22.9618 31.0083C22.7685 30.5164 22.1361 30.3934 21.7847 30.7624Z" fill="#FADB4F"/>
</g>
</g>
<path id="Vector_18" d="M19.1143 44.3251C19.6577 44.3251 20.0982 43.8846 20.0982 43.3412C20.0982 42.7979 19.6577 42.3574 19.1143 42.3574C18.571 42.3574 18.1305 42.7979 18.1305 43.3412C18.1305 43.8846 18.571 44.3251 19.1143 44.3251Z" fill="#00ABDB"/>
<path id="Vector_19" d="M37.9652 47.1532C38.5085 47.1532 38.949 46.7127 38.949 46.1694C38.949 45.626 38.5085 45.1855 37.9652 45.1855C37.4218 45.1855 36.9813 45.626 36.9813 46.1694C36.9813 46.7127 37.4218 47.1532 37.9652 47.1532Z" fill="#00ABDB"/>
<path id="Vector_20" d="M23.524 52.1429C23.8345 52.1429 24.0862 51.8912 24.0862 51.5807C24.0862 51.2703 23.8345 51.0186 23.524 51.0186C23.2135 51.0186 22.9618 51.2703 22.9618 51.5807C22.9618 51.8912 23.2135 52.1429 23.524 52.1429Z" fill="#00ABDB"/>
</g>
</g>
</svg>
