<svg width="55" height="55" viewBox="0 0 55 55" fill="none" xmlns="http://www.w3.org/2000/svg">
<g id="Group 41">
<path id="Vector" d="M27.5 55C42.6878 55 55 42.6879 55 27.5004C55 12.3121 42.6878 0 27.5 0C12.3122 0 0 12.3121 0 27.5004C0 42.6879 12.3122 55 27.5 55Z" fill="#00ABDB"/>
<path id="Vector_2" d="M13.0892 38L11.0804 42.9387C10.7935 43.5443 11.3261 44.2429 11.8594 43.917L16 41.6344L13.0892 38Z" fill="#EB3D7D"/>
<path id="Vector_3" d="M13.2729 37.9247C12.7809 39.0204 12.9597 40.3149 13.7649 41.161C14.5259 42.0078 15.6894 42.2567 16.6742 41.7088L22 38.1243L20.8808 33.0949L16.4954 32L13.2729 37.9247Z" fill="#F3C538"/>
<path id="Vector_4" d="M39.4029 17.6339L39.3558 17.5876C38.5597 16.8041 37.2488 16.8041 36.4528 17.5876L19.5971 34.5078C18.801 35.2913 18.801 36.5827 19.5971 37.3661L19.6435 37.4124C20.4396 38.1959 21.7504 38.1959 22.5465 37.4124L39.4029 20.4921C40.199 19.6624 40.199 18.4637 39.4029 17.6339Z" fill="#FFDA1B"/>
<path id="Vector_5" d="M19.4947 34.419L38.4117 15.4537C39.1961 14.6332 39.1961 13.3562 38.4117 12.5815C37.5808 11.8062 36.2891 11.8062 35.5046 12.5815L16.5883 31.5468C15.8039 32.3673 15.8039 33.6436 16.5883 34.419C17.3728 35.1937 18.7109 35.1937 19.4947 34.419Z" fill="#FFB000"/>
<path id="Vector_6" d="M34.6754 16.5041L37.5186 19.3579C38.3721 20.214 39.6991 20.214 40.5519 19.3579L43.5382 16.3613C44.1539 15.743 44.1539 14.6492 43.5382 14.0308L39.9838 10.4637C39.3673 9.84542 38.2775 9.84542 37.661 10.4637L34.6754 13.4604C33.7749 14.2686 33.7749 15.648 34.6754 16.5041Z" fill="#DE0059"/>
<path id="Vector_7" d="M40.1396 10.4706L43.5608 13.8753C44.1464 14.4577 44.1464 15.4429 43.5608 16.0252L43.0206 16.5632C42.4358 17.1456 41.4452 17.1456 40.8604 16.5632L37.4392 13.1585C36.8536 12.5761 36.8536 11.5902 37.4392 11.0079L37.9794 10.4706C38.5642 9.84314 39.5548 9.84314 40.1396 10.4706Z" fill="#FF1C7D"/>
</g>
</svg>
