<svg width="70" height="70" viewBox="0 0 64 56" fill="none" xmlns="http://www.w3.org/2000/svg">
<g id="Group 38">
<path id="Vector" d="M27.1399 55.1648C41.8652 55.1648 53.8014 43.2213 53.8014 28.488C53.8014 13.7543 41.8652 1.81055 27.1399 1.81055C12.4155 1.81055 0.478516 13.7543 0.478516 28.488C0.478516 43.2213 12.4155 55.1648 27.1399 55.1648Z" fill="#2E95CE"/>
<path id="Vector_2" d="M26.6614 53.3543C41.3867 53.3543 53.3229 41.4108 53.3229 26.6774C53.3229 11.9438 41.3867 0 26.6614 0C11.937 0 0 11.9438 0 26.6774C0 41.4108 11.937 53.3543 26.6614 53.3543Z" fill="#00ABDB"/>
<path id="Vector_3" d="M16.6581 23.2693L32.7824 32.2151C33.2612 32.4813 33.8998 32.3214 34.166 31.8418L34.6447 31.0433C34.9109 30.5645 34.7511 29.9251 34.2723 29.6589L18.2007 20.7134C18.0944 20.6602 18.0417 20.6069 17.9346 20.5005L15.0084 17.4121C14.8485 17.2523 14.6886 17.1459 14.476 17.0925L10.804 16.3471C10.378 16.2406 9.95278 16.4536 9.73936 16.8264L9.04798 18.1043C8.83456 18.477 8.88813 18.9563 9.20704 19.2758L11.7616 21.9914C11.9215 22.1511 12.0813 22.2576 12.2939 22.3109L16.4447 23.163C16.4982 23.2157 16.551 23.2157 16.6581 23.2693Z" fill="#FAB538"/>
<path id="Vector_4" d="M33.633 28.1684C32.9417 27.7959 32.0369 28.0621 31.6644 28.7543L30.2272 31.3632C29.8548 32.0554 30.1209 32.9602 30.8123 33.3335L41.4558 39.2971C42.148 39.6696 42.9457 39.7759 43.6915 39.5633C44.3828 39.3507 45.075 38.8711 45.4475 38.1789C46.2452 36.7409 45.7137 34.9841 44.3293 34.1856L33.633 28.1684Z" fill="#EB3D7D"/>
<path id="Vector_5" d="M33.3666 9.26511C34.1116 9.15856 34.6439 9.90407 34.2715 10.5963L33.5793 11.8742C33.0477 12.8326 33.2068 13.8444 33.9517 14.3769C34.8038 14.9626 35.974 14.6964 36.4536 13.8444L37.3048 12.3535C37.6773 11.7145 38.5821 11.7145 38.901 12.4067C39.1144 12.886 39.2207 13.3652 39.2735 13.9509C39.4333 16.0276 38.2624 18.1042 36.3464 19.0095C36.1338 19.1159 35.9212 19.2224 35.6551 19.2757C34.8565 19.4886 34.2179 20.0744 33.7927 20.8199L25.3313 36.0485C24.958 36.7407 24.799 37.6463 24.958 38.4448C25.0116 38.711 25.0651 38.9772 25.1179 39.2433C25.384 41.3199 24.2666 43.3965 22.3507 44.3557C21.8719 44.6219 21.3931 44.7817 20.8608 44.8345C20.1159 44.9408 19.5835 44.1959 19.956 43.5037L20.8073 42.0121C21.2868 41.1073 20.9671 39.9891 19.956 39.6166C19.1575 39.2433 18.1464 39.6166 17.7212 40.4151L16.9227 41.8531C16.5502 42.4917 15.6454 42.4917 15.3265 41.7995C15.113 41.3199 15.0067 40.8412 14.954 40.2553C14.7941 38.1787 15.9651 36.1021 17.8802 35.1964C18.2 35.0374 18.5189 34.9303 18.8386 34.8775C19.4237 34.7704 19.956 34.3452 20.1686 33.812L29.1096 17.7848C29.4285 17.2523 29.4285 16.6133 29.2686 16.0808C29.1623 15.7613 29.056 15.4418 29.056 15.0691C28.7898 12.9924 29.9073 10.9158 31.8232 9.95731C32.3555 9.53136 32.8879 9.31834 33.3666 9.26511Z" fill="#660099"/>
<path id="Vector_6" d="M22.0328 32.9073L29.0578 20.2874C29.3768 19.6484 30.1753 19.4354 30.7604 19.8081L31.4526 20.1809C32.0376 20.5003 32.2503 21.2991 31.9313 21.8848L24.9063 34.5043C24.5874 35.1437 23.7889 35.3563 23.2038 34.9839L22.5116 34.6114C22.1927 34.398 21.9801 34.1318 21.9265 33.8121C21.8202 33.5459 21.8729 33.1734 22.0328 32.9073ZM31.1864 20.6069L30.4942 20.2342C30.1217 20.0212 29.6429 20.1276 29.4303 20.5537L22.4053 33.1734C22.1927 33.5459 22.299 34.0255 22.725 34.2381L23.4164 34.6114C23.7889 34.824 24.2685 34.7177 24.4811 34.2917L31.5053 21.6718C31.6116 21.5121 31.6652 21.2991 31.6116 21.0861C31.5589 20.8731 31.399 20.7134 31.1864 20.6069Z" fill="#55057F"/>
<g id="Group" opacity="0.5">
<path id="Vector_7" opacity="0.5" d="M20.4883 44.0893C20.5411 44.2484 20.6474 44.3019 20.8072 44.2484C21.2333 44.1956 21.712 44.0358 22.1381 43.8224C23.8406 43.0238 24.799 41.1607 24.5855 39.2967C24.5855 39.1368 24.4265 39.0305 24.3194 39.0305C24.2131 39.0305 24.054 39.1904 24.054 39.2967C24.2666 40.9473 23.4154 42.5451 21.9247 43.29C21.5522 43.4499 21.1797 43.6097 20.7545 43.6633C20.5411 43.8224 20.4348 43.9295 20.4883 44.0893Z" fill="#8533AD"/>
</g>
<g id="Group_2" opacity="0.5">
<path id="Vector_8" opacity="0.5" d="M16.3379 41.0011C16.3379 41.0538 16.3906 41.1074 16.4442 41.161C16.5505 41.2137 16.7104 41.161 16.8167 41.0538L17.6152 39.6167C17.9876 38.9772 18.8389 38.6048 19.4775 38.9245C19.5838 38.9772 19.7437 38.9245 19.85 38.7646C19.9035 38.6583 19.85 38.4985 19.6901 38.3913C18.7861 37.9661 17.6679 38.3913 17.1364 39.3505L16.3379 40.7877C16.3379 40.8412 16.3379 40.9475 16.3379 41.0011Z" fill="#8533AD"/>
</g>
<path id="Vector_9" d="M51.939 36.1558L48.4805 33.2271C47.2032 32.1616 46.2984 30.7245 45.8723 29.1267L45.5534 28.1147C45.2345 26.9965 44.0635 26.3579 42.9461 26.6776C42.0413 26.9438 41.4027 27.7423 41.4027 28.6479V29.3928C41.3491 31.4167 41.7751 33.4397 42.5201 35.3037L43.1052 36.6881L35.8683 38.7111C35.1761 38.9246 34.591 39.4033 34.3249 40.0955C33.8988 41.0539 34.0587 42.2257 34.7501 43.0242L35.3887 43.77L35.336 44.0897C35.0698 45.4205 35.4958 46.8049 36.5069 47.7633L36.9857 48.1893C37.0921 49.521 37.837 50.7455 39.008 51.3314C39.4867 51.5976 39.8056 51.7574 39.8056 51.7574C40.2852 53.5143 42.0941 54.5262 43.8501 53.9931L56.3032 50.4258C57.208 50.1596 57.6868 49.2548 57.4742 48.3492L55.5583 41.7997C54.9196 39.5632 53.6959 37.6465 51.939 36.1558Z" fill="#FAB538"/>
<path id="Vector_10" d="M58.0602 51.2778L63.7008 49.6799C63.9142 49.6272 64.0733 49.4138 63.967 49.1476L60.0824 35.4627C60.0289 35.2501 59.8162 35.0902 59.5501 35.1965L53.9094 36.7943C53.696 36.8479 53.537 37.0605 53.6433 37.3267L57.5278 51.0116C57.6341 51.1715 57.8476 51.3305 58.0602 51.2778Z" fill="#660099"/>
<path id="Vector_11" d="M60.2946 49.0949C60.7645 49.0949 61.1459 48.7135 61.1459 48.2428C61.1459 47.7721 60.7645 47.3907 60.2946 47.3907C59.824 47.3907 59.4434 47.7721 59.4434 48.2428C59.4434 48.7135 59.824 49.0949 60.2946 49.0949Z" fill="#EB3D7D"/>
</g>
</svg>
